HIERARCHY
ROOT Hips
{
	OFFSET -0.179506 -22.333345 2.821913
	CHANNELS 6 Xposition Yposition Zposition Zrotation Yrotation Xrotation 
	JOINT LeftUpLeg
	{
		OFFSET 6.951974 -9.140623 -0.681533
		CHANNELS 3 Zrotation Yrotation Xrotation
		JOINT LeftLeg
		{
			OFFSET 3.427654 -37.519855 -0.449580
			CHANNELS 3 Zrotation Yrotation Xrotation
			JOINT LeftFoot
			{
				OFFSET -1.359570 -39.796059 -4.369333
				CHANNELS 3 Zrotation Yrotation Xrotation
				JOINT LeftToe
				{
					OFFSET 2.635814 -5.579078 11.928840
					CHANNELS 3 Zrotation Yrotation Xrotation
					End Site
					{
						OFFSET 0.000000 0.000000 0.000000
					}
				}
			}
		}
	}
	JOINT RightUpLeg
	{
		OFFSET -6.767048 -9.052170 -0.431982
		CHANNELS 3 Zrotation Yrotation Xrotation
		JOINT RightLeg
		{
			OFFSET -3.829005 -38.256897 -0.885003
			CHANNELS 3 Zrotation Yrotation Xrotation
			JOINT RightFoot
			{
				OFFSET 1.577377 -39.841461 -4.231180
				CHANNELS 3 Zrotation Yrotation Xrotation
				JOINT RightToe
				{
					OFFSET -2.537174 -4.814398 12.334795
					CHANNELS 3 Zrotation Yrotation Xrotation
					End Site
					{
						OFFSET 0.000000 0.000000 0.000000
					}
				}
			}
		}
	}
	JOINT Spine
	{
		OFFSET -0.253288 10.896323 -2.669631
		CHANNELS 3 Zrotation Yrotation Xrotation
		JOINT Spine1
		{
			OFFSET 0.548704 13.518043 0.109247
			CHANNELS 3 Zrotation Yrotation Xrotation
			JOINT Spine2
			{
				OFFSET 0.145701 5.292222 2.542457
				CHANNELS 3 Zrotation Yrotation Xrotation
				JOINT Neck
				{
					OFFSET -0.277840 21.387037 -4.285703
					CHANNELS 3 Zrotation Yrotation Xrotation
					JOINT Head
					{
						OFFSET 0.515184 6.496960 5.134897
						CHANNELS 3 Zrotation Yrotation Xrotation
						End Site
						{
							OFFSET 0.000000 0.000000 0.000000
						}
					}
				}
				JOINT LeftShoulder
				{
					OFFSET 7.884473 12.174932 -3.408961
					CHANNELS 3 Zrotation Yrotation Xrotation
					JOINT LeftArm
					{
						OFFSET 9.097692 3.046888 -0.886815
						CHANNELS 3 Zrotation Yrotation Xrotation
						JOINT LeftForeArm
						{
							OFFSET 25.961220 -1.277207 -2.745643
							CHANNELS 3 Zrotation Yrotation Xrotation
							JOINT LeftHand
							{
								OFFSET 24.923361 0.898606 -0.117091
								CHANNELS 3 Zrotation Yrotation Xrotation
								End Site
								{
									OFFSET 0.000000 0.000000 0.000000
								}
							}
						}
					}
				}
				JOINT RightShoulder
				{
					OFFSET -8.175920 11.883285 -3.861528
					CHANNELS 3 Zrotation Yrotation Xrotation
					JOINT RightArm
					{
						OFFSET -9.601238 3.255117 -0.914307
						CHANNELS 3 Zrotation Yrotation Xrotation
						JOINT RightForeArm
						{
							OFFSET -25.374195 -1.332924 -2.140099
							CHANNELS 3 Zrotation Yrotation Xrotation
							JOINT RightHand
							{
								OFFSET -25.529810 0.777228 -0.555919
								CHANNELS 3 Zrotation Yrotation Xrotation
								End Site
								{
									OFFSET 0.000000 0.000000 0.000000
								}
							}
						}
					}
				}
			}
		}
	}
}
MOTION
Frames: 13
Frame Time: 0.033333
-73.840401 183.913269 88.046341 137.418269 -6.075183 82.570384 19.751766 12.064140 -14.652033 -7.681728 11.881987 36.419367 4.222765 11.891969 -18.311938 nan nan nan -18.599013 -9.346324 -11.864713 -0.722423 -12.203825 51.009882 0.412686 -4.469538 -37.789313 nan nan nan -0.644019 0.926287 6.221157 -2.021835 -4.516411 9.262453 -1.762846 -0.168325 -1.802412 2.209802 25.366484 8.969209 -5.652979 26.101946 7.018707 -19.876509 -6.344460 -0.531238 -51.014311 0.724188 3.576525 105.368251 -50.944872 -82.011733 -5.069577 -4.582526 -15.260171 17.046005 22.614440 0.182270 58.869042 34.751906 23.418768 -174.885223 67.645448 -159.757394 10.266951 14.827795 -23.509746 
-73.577248 184.170929 88.087982 136.616661 -6.237966 82.328435 19.966597 12.753870 -13.367197 -7.797356 12.071981 35.863731 4.301925 11.673702 -18.601204 nan nan nan -18.706403 -9.103803 -11.402583 -0.834943 -11.846526 50.739595 0.538573 -3.980830 -37.637371 nan nan nan -0.841909 0.924727 5.134962 -2.122205 -4.160558 11.153993 -1.814573 -0.031956 -2.394083 2.533379 25.656588 9.778492 -6.203997 25.895952 6.185887 -20.095445 -6.518963 -0.508629 -50.885476 1.346509 2.998260 105.703313 -50.748439 -82.298132 -4.869281 -4.867726 -14.634213 17.531931 23.410858 0.937041 58.021420 34.920262 22.776348 -174.633392 67.644497 -159.664645 10.250306 15.017720 -23.002307 
-73.474068 184.292740 88.085396 136.393050 -6.309450 82.228576 20.032554 12.961247 -12.899493 -7.893900 12.106679 35.625235 4.313726 11.665585 -18.619998 nan nan nan -18.820342 -9.079216 -11.151233 -0.811036 -11.736041 50.634932 0.544445 -3.841506 -37.601801 nan nan nan -0.856747 0.899125 4.759289 -2.185609 -4.035378 11.720854 -1.843255 0.060097 -2.434518 2.545238 25.684618 9.958751 -6.463826 25.842616 5.807932 -20.083958 -6.658472 -0.514336 -50.943436 1.455766 2.844698 105.835483 -50.677678 -82.565122 -4.931497 -4.885370 -14.728903 17.526049 23.679907 1.102316 57.780432 34.986347 22.520272 -174.661536 67.580430 -159.778021 10.474500 15.090938 -22.842658 
-73.556976 184.216217 88.066513 136.661496 -6.253668 82.318099 19.979026 12.750336 -13.360687 -7.888650 12.060449 35.837350 4.360110 11.767883 -18.504021 nan nan nan -18.778141 -9.142458 -11.321369 -0.761764 -11.840099 50.786088 0.480992 -4.043149 -37.616829 nan nan nan -0.814461 0.916575 5.084731 -2.147284 -4.136484 11.220075 -1.818098 0.000523 -2.294079 2.505058 25.555500 9.569533 -6.384655 25.956457 6.125047 -19.953590 -6.640303 -0.562706 -51.052764 1.290666 3.011445 105.839402 -50.891286 -82.526286 -5.251769 -4.611270 -14.866380 17.375843 23.504896 0.822109 57.934459 34.933256 22.662660 -174.684505 67.550855 -159.873100 10.844216 15.000792 -23.038049 
-73.806534 183.970154 88.041183 137.455489 -6.040668 82.516482 19.808527 12.133879 -14.654560 -7.691574 11.993004 36.499775 4.324284 11.938754 -18.280314 nan nan nan -18.600629 -9.335029 -11.735261 -0.683494 -12.189085 51.050678 0.417228 -4.540856 -37.616548 nan nan nan -0.661135 0.955033 6.275772 -1.978489 -4.539898 9.432118 -1.730402 -0.294189 -1.913557 2.503279 25.316250 8.791831 -6.099917 26.427199 7.013769 -19.745056 -6.319846 -0.611815 -51.293073 1.038632 3.435385 105.820170 -51.260669 -82.474572 -5.111098 -4.500848 -15.668464 17.057917 22.913498 0.228185 58.404865 34.900276 23.203221 -174.946240 67.617315 -160.106938 10.730051 14.859742 -23.476735 
-73.747841 184.003586 88.105949 137.307199 -5.805859 82.587967 20.131232 12.599428 -14.744628 -7.801284 11.999154 36.709450 3.669847 11.834201 -18.160374 nan nan nan -18.207420 -9.200639 -11.747756 -0.860871 -12.275046 50.927671 0.541896 -4.353850 -37.869712 nan nan nan -0.632986 0.880105 6.839831 -1.855775 -4.029129 8.611763 -1.389878 -0.496836 -2.063090 3.101301 25.714106 9.736482 -6.871227 26.678815 6.225483 -21.492494 -5.171847 -1.559381 -48.923378 0.494904 2.511656 105.065087 -52.479056 -78.978386 -0.187456 -5.968569 -8.504641 16.890293 22.090161 -0.957719 59.150038 34.149439 23.405114 -178.213264 68.172136 -163.774188 9.857937 16.235340 -23.029933 
-73.705643 184.048309 88.134460 137.207549 -5.558659 82.810119 20.371079 13.158045 -15.058471 -7.336751 12.435700 37.184670 3.079203 10.831837 -18.438402 nan nan nan -17.910339 -8.934172 -11.890749 -1.210682 -12.785207 51.022689 0.730895 -3.793663 -37.932672 nan nan nan -0.362389 0.999927 6.843523 -1.825436 -3.492648 8.848055 -1.065372 -1.299894 -2.932929 4.450605 27.471484 11.412110 -8.030996 25.534651 5.518375 -22.367180 -4.962115 -2.162037 -47.331572 1.781401 0.616109 104.255741 -51.642828 -72.150158 -9.267791 -10.353897 2.190033 16.401893 22.427858 -1.425541 60.267656 32.982834 24.045183 -176.065933 68.283738 -159.145253 12.982634 18.760879 -23.174391 
-73.737885 184.035095 88.062462 137.192693 -5.719552 82.649558 20.289916 13.020064 -14.964518 -7.357483 12.570869 37.310376 3.389667 10.829026 -18.533992 nan nan nan -18.182633 -8.878949 -11.891237 -1.447738 -12.958651 51.391383 0.491414 -3.583471 -38.048191 nan nan nan -0.352569 0.867569 5.685505 -2.069640 -3.800787 11.942514 -1.465338 -1.007209 -4.042148 5.123961 28.338095 11.019429 -8.544999 25.090319 5.550182 -21.913919 -5.272847 -2.446227 -47.312741 1.664151 0.484044 104.230289 -51.255234 -72.554331 -9.777434 -10.380358 3.247331 16.579808 23.215309 -1.646655 59.997129 33.071100 24.362299 -173.950894 68.302192 -157.227900 12.828264 18.577036 -22.725492 
-73.739990 184.066162 88.055542 137.185484 -5.741904 82.654122 20.252084 12.964817 -14.983551 -7.339951 12.576455 37.336427 3.421386 10.841147 -18.545169 nan nan nan -18.209595 -8.855692 -11.947035 -1.536966 -12.976821 51.510463 0.424346 -3.551558 -38.104157 nan nan nan -0.365517 0.937289 5.608375 -2.071584 -3.748371 12.263291 -1.457190 -1.065237 -4.228171 5.277219 28.584119 11.086956 -8.632752 25.151290 5.474510 -21.910863 -5.278019 -2.486888 -47.344438 1.742666 0.526762 104.288778 -51.235499 -72.395333 -9.707316 -10.685840 3.407598 16.596135 23.138811 -1.762863 60.126063 32.919462 24.460108 -173.888735 68.286884 -157.078421 12.897793 18.698266 -22.775072 
-73.750671 184.088913 88.051392 137.150277 -5.795562 82.697776 20.190398 12.937204 -15.024649 -7.286011 12.685892 37.378930 3.416016 10.910164 -18.582188 nan nan nan -18.227439 -8.799636 -12.057419 -1.634657 -12.962783 51.595783 0.427998 -3.588262 -38.102776 nan nan nan -0.388279 0.984294 5.619259 -2.100085 -3.702324 12.212998 -1.447297 -1.104747 -4.216047 5.408183 28.863288 11.212961 -8.702280 25.320114 5.322205 -21.874262 -5.256185 -2.489183 -47.377298 1.761240 0.475906 104.380220 -51.234665 -72.379446 -9.834078 -10.810337 3.632380 16.607171 23.038917 -1.748934 60.344013 32.847840 24.462454 -174.027785 68.299348 -157.144129 13.138692 18.857530 -22.699879 
-73.752449 184.095428 88.055641 137.124343 -5.804736 82.684499 20.195583 12.938970 -14.997011 -7.282175 12.688653 37.385589 3.420929 10.939576 -18.552352 nan nan nan -18.187126 -8.787102 -12.083294 -1.691834 -12.896840 51.635513 0.390372 -3.649821 -38.146020 nan nan nan -0.399907 1.080598 5.798290 -2.077268 -3.648319 12.154578 -1.425483 -1.224306 -4.347981 5.649652 29.192054 11.257387 -8.802115 25.532335 5.387415 -21.841872 -5.073047 -2.522388 -47.383686 1.755407 0.536570 104.541575 -51.359832 -72.530993 -9.833787 -10.810406 3.696187 16.665788 22.829487 -1.735585 60.445043 32.866077 24.591269 -174.223376 68.279508 -157.312619 13.166347 18.895413 -22.696848 
-73.744530 184.107758 88.058784 137.138259 -5.757261 82.561267 20.266494 12.931040 -14.871176 -7.278311 12.621356 37.401585 3.395209 10.889818 -18.540418 nan nan nan -18.139398 -8.792153 -11.932064 -1.694712 -12.837037 51.620960 0.360990 -3.653073 -38.226863 nan nan nan -0.393543 1.171460 6.025579 -2.021023 -3.614994 12.173085 -1.373152 -1.336994 -4.455838 5.773146 29.471487 11.251303 -8.882280 25.683747 5.382091 -21.801636 -4.954310 -2.536842 -47.520596 1.742767 0.640162 104.601026 -51.376687 -72.631838 -9.757236 -10.910917 3.291865 16.670027 22.698830 -1.746434 60.401027 32.926398 24.703540 -174.190903 68.208339 -157.207417 12.998653 18.873171 -22.819058 
-73.738121 184.137772 88.046799 137.152473 -5.686163 82.495155 20.418754 12.904794 -14.829571 -7.199182 12.820708 37.550476 3.199371 10.506077 -18.516233 nan nan nan -18.117297 -8.546898 -11.739398 -2.061261 -13.267504 51.641103 0.405323 -3.193899 -38.370229 nan nan nan -0.381459 1.333245 5.772589 -1.924642 -3.546212 13.350943 -1.291758 -1.578168 -5.139652 6.497356 30.099310 11.683522 -9.785839 25.261250 5.034186 -21.697729 -5.121483 -2.825164 -47.890445 1.958772 1.024218 104.679342 -50.807555 -72.646172 -10.789406 -11.346059 3.466763 15.950259 23.866064 -2.795169 61.447049 31.420776 26.706218 -169.740517 67.809903 -153.334842 12.575089 19.124363 -22.876665 
